<?xml version="1.0" encoding="utf-8"?>
<!-- Svg Vector Icons : http://www.onlinewebfonts.com/icon -->
<!DOCTYPE svg PUBLIC "-//W3C//DTD SVG 1.1//EN" "http://www.w3.org/Graphics/SVG/1.1/DTD/svg11.dtd">
<svg version="1.1" xmlns="http://www.w3.org/2000/svg" xmlns:xlink="http://www.w3.org/1999/xlink" x="0px" y="0px" viewBox="0 0 1000 1000" enable-background="new 0 0 1000 1000" xml:space="preserve">
<metadata> Svg Vector Icons : http://www.onlinewebfonts.com/icon </metadata>
<g><path d="M867.5,859.8h-735C69.3,859.8,10,800.7,10,737.3V262.7c0-63.4,44-122.5,107.2-122.5h750.3c63.2,0,122.5,59.1,122.5,122.5v474.7C990,800.7,930.7,859.8,867.5,859.8z M959.4,262.7c0-45.3-46.8-91.9-91.9-91.9H117.2c-45.1,0-76.6,46.6-76.6,91.9v474.7c0,45.3,46.7,91.9,91.9,91.9h735c45.1,0,91.9-46.6,91.9-91.9V262.7L959.4,262.7z M806.3,568.9H193.8c-63.2,0-122.5-59.2-122.5-122.5V323.9c0-63.4,44-122.5,107.2-122.5h627.8c63.2,0,122.5,59.1,122.5,122.5v122.5C928.8,509.8,869.4,568.9,806.3,568.9z M898.1,323.9c0-45.3-46.7-91.9-91.9-91.9H178.4c-45.1,0-76.6,46.6-76.6,91.9v122.5c0,45.3,46.7,91.9,91.9,91.9h612.5c45.1,0,91.9-46.6,91.9-91.9V323.9z M637.8,507.7h-30.6v-245l0,0h30.6h122.5v30.6H637.8V477h122.5v30.6L637.8,507.7L637.8,507.7z M454.1,507.7h-30.6v0V477V262.7h30.6V477h122.5v30.6L454.1,507.7L454.1,507.7z M270.3,507.7h-30.6V385.2l0,0V262.7h153.1v122.5H270.3V507.7z M362.2,354.5v-61.3h-91.9v61.3H362.2z M300.9,768h-138V630.2h138V768z M270.2,660.8h-76.6v76.6h76.6V660.8z M576.5,768h-138V630.2h138V768z M545.8,660.8h-76.6v76.6h76.6V660.8z M836.8,768h-138V630.2h138L836.8,768L836.8,768z M806.1,660.8h-76.6v76.6h76.6V660.8z"/></g>
</svg>