<?xml version="1.0" encoding="utf-8"?>
<!-- Svg Vector Icons : http://www.onlinewebfonts.com/icon -->
<!DOCTYPE svg PUBLIC "-//W3C//DTD SVG 1.1//EN" "http://www.w3.org/Graphics/SVG/1.1/DTD/svg11.dtd">
<svg version="1.1" xmlns="http://www.w3.org/2000/svg" xmlns:xlink="http://www.w3.org/1999/xlink" x="0px" y="0px" viewBox="0 0 1000 1000" enable-background="new 0 0 1000 1000" xml:space="preserve">
<metadata> Svg Vector Icons : http://www.onlinewebfonts.com/icon </metadata>
<g><g transform="translate(0.000000,253.000000) scale(0.100000,-0.100000)"><path d="M4214.7,2354.9c-670.6-195-1302.3-690.1-1668.8-1317.9c-210.5-354.8-296.3-694-315.8-1239.9c-31.2-853.9,85.8-1216.5,795.4-2386.2c873.4-1450.5,1076.1-1863.8,1356.9-2752.8c136.5-436.7,304.1-1208.7,350.9-1661c35.1-296.3,109.2-389.9,288.5-362.6c148.2,19.5,237.9,136.5,237.9,304.1c0,218.4,152.1,1033.3,276.9,1477.8c265.1,939.7,553.6,1555.7,1294.5,2764.4c479.6,783.7,768.1,1360.8,869.5,1739C7805.8-686.4,7798,62.2,7681,440.5c-292.4,955.3-994.3,1653.2-1914.5,1906.6C5380.6,2456.3,4581.2,2456.3,4214.7,2354.9z M5478,717.3c230-101.4,413.3-272.9,553.6-510.8C6125.3,50.6,6137-7.9,6137-339.4c0-417.2-62.4-588.8-311.9-838.3c-245.6-245.6-421.1-311.9-818.8-311.9c-288.5,0-378.2,15.6-514.7,89.7c-522.5,276.8-772,822.7-616,1353c117,409.4,358.7,666.7,760.3,814.9C4862,849.9,5224.6,830.4,5478,717.3z"/></g></g>
</svg>